<?xml version="1.0" standalone="no"?>
<!DOCTYPE svg PUBLIC "-//W3C//DTD SVG 20010904//EN"
 "http://www.w3.org/TR/2001/REC-SVG-20010904/DTD/svg10.dtd">
<svg version="1.0" xmlns="http://www.w3.org/2000/svg"
 width="960.000000pt" height="960.000000pt" viewBox="0 0 960.000000 960.000000"
 preserveAspectRatio="xMidYMid meet">
<metadata>
Created by potrace 1.15, written by Peter Selinger 2001-2017
</metadata>
<g transform="translate(0.000000,960.000000) scale(0.100000,-0.100000)"
fill="#000000" stroke="none">
<path d="M4926 9584 c-14 -13 -16 -61 -16 -368 0 -260 3 -355 12 -364 14 -14
54 -16 62 -3 3 4 6 170 6 367 1 329 0 360 -16 371 -23 17 -29 16 -48 -3z"/>
<path d="M5850 9460 c-11 -11 -20 -31 -20 -45 0 -40 -21 -171 -30 -185 -6 -10
-15 -7 -39 12 -124 105 -329 56 -409 -96 -35 -67 -37 -169 -5 -232 28 -53 89
-107 147 -129 94 -36 242 3 300 79 51 68 60 101 106 405 25 168 25 188 1 201
-26 13 -28 13 -51 -10z m-184 -259 c75 -34 122 -126 105 -204 -27 -118 -155
-181 -259 -128 -74 38 -107 99 -99 183 9 97 84 168 177 168 19 0 54 -9 76 -19z"/>
<path d="M4479 9345 c-195 -102 -187 -399 13 -485 106 -46 240 -11 302 79 51
73 70 157 41 181 -22 19 -49 8 -59 -25 -38 -127 -90 -175 -190 -175 -29 0 -55
8 -84 27 -23 15 -42 30 -42 33 0 3 33 27 73 54 208 141 267 188 267 210 0 28
-63 90 -112 111 -57 23 -154 19 -209 -10z m200 -77 c22 -16 21 -17 -116 -111
-84 -58 -141 -91 -145 -84 -10 17 0 84 18 124 10 21 36 48 63 65 40 25 54 29
101 26 31 -2 66 -11 79 -20z"/>
<path d="M3582 9194 c-189 -94 -189 -369 1 -465 90 -47 208 -33 282 32 32 29
34 29 62 12 61 -34 76 1 48 110 -8 32 -15 73 -15 91 0 49 -27 117 -62 160 -70
85 -212 112 -316 60z m207 -64 c63 -32 111 -105 111 -170 0 -61 -53 -146 -111
-176 -15 -7 -53 -14 -84 -14 -65 0 -100 16 -142 64 -63 71 -67 160 -12 236 54
74 159 101 238 60z"/>
<path d="M6118 9133 c-128 -43 -206 -182 -178 -317 29 -142 175 -232 311 -193
71 21 130 66 159 121 20 37 22 47 11 60 -22 27 -47 18 -87 -30 -65 -81 -141
-100 -228 -59 -30 15 -94 91 -84 101 3 2 80 20 174 39 274 58 263 52 236 134
-21 62 -84 122 -151 144 -65 21 -101 21 -163 0z m162 -88 c29 -15 76 -63 68
-70 -9 -9 -319 -68 -325 -61 -9 9 27 82 53 107 46 43 143 54 204 24z"/>
<path d="M3274 9066 c-59 -53 -61 -54 -77 -35 -20 23 -40 24 -57 5 -9 -12 3
-58 60 -230 39 -118 77 -222 84 -231 17 -24 56 -11 56 18 0 12 -24 92 -52 179
l-53 158 74 74 c49 49 72 80 69 92 -7 37 -42 27 -104 -30z"/>
<path d="M6593 8945 c-45 -19 -63 -51 -63 -113 0 -71 18 -104 107 -189 62 -60
74 -76 71 -100 -2 -17 -13 -33 -29 -42 -24 -14 -32 -11 -135 37 -61 29 -117
52 -127 52 -24 0 -42 -37 -26 -57 18 -21 173 -98 236 -116 67 -20 111 -9 152
39 58 66 43 111 -79 239 -88 93 -102 120 -81 154 13 21 75 9 169 -34 89 -39
112 -40 112 -2 0 31 -8 37 -110 82 -130 58 -160 65 -197 50z"/>
<path d="M2813 8909 c-168 -33 -261 -211 -189 -364 80 -173 302 -207 429 -66
33 36 39 40 62 31 36 -14 52 -12 58 4 7 17 -8 76 -33 131 -10 22 -23 59 -29
82 -18 65 -68 124 -131 155 -65 31 -110 39 -167 27z m124 -80 c64 -24 123
-109 123 -179 0 -45 -30 -108 -66 -142 -128 -120 -344 -4 -318 170 8 53 55
117 104 143 39 21 113 25 157 8z"/>
<path d="M7070 8681 c-124 -41 -193 -130 -194 -251 -1 -138 94 -247 229 -263
24 -3 31 -9 36 -36 12 -58 24 -59 76 -4 110 116 133 145 153 184 64 124 12
285 -112 347 -49 24 -148 36 -188 23z m161 -93 c86 -48 124 -172 77 -252 -58
-99 -165 -133 -258 -84 -68 37 -103 93 -104 167 -1 51 4 66 30 103 60 85 170
114 255 66z"/>
<path d="M2276 8611 c-64 -23 -115 -67 -151 -132 -25 -45 -30 -65 -30 -124 0
-58 5 -80 29 -125 51 -98 246 -398 262 -404 25 -9 54 12 54 40 0 14 -17 51
-39 82 -51 76 -73 120 -66 132 3 6 23 10 44 10 50 0 134 43 171 88 17 21 40
62 51 92 53 140 -25 304 -165 345 -62 19 -98 18 -160 -4z m163 -96 c27 -13 51
-22 55 -20 3 3 4 2 2 -1 -3 -3 6 -26 20 -51 96 -182 -127 -356 -283 -220 -61
54 -79 129 -48 204 21 50 42 72 90 94 55 25 107 24 164 -6z"/>
<path d="M7419 8243 c-78 -93 -146 -178 -152 -190 -11 -24 4 -53 28 -53 10 0
221 236 240 267 1 1 48 -7 104 -19 102 -22 104 -22 118 -2 12 17 12 21 -8 37
-12 9 -27 17 -33 17 -7 0 -36 7 -64 15 -48 15 -52 18 -46 41 7 26 -10 54 -32
54 -7 0 -77 -75 -155 -167z"/>
<path d="M4555 8294 c-688 -45 -1334 -283 -1878 -692 -797 -600 -1301 -1510
-1386 -2507 -20 -231 -12 -562 20 -795 90 -662 381 -1307 820 -1815 143 -167
364 -374 540 -507 479 -362 1034 -588 1650 -673 164 -23 532 -31 714 -15 834
69 1584 417 2175 1009 289 290 506 593 676 946 177 368 278 713 331 1130 22
175 25 625 5 790 -100 836 -442 1548 -1022 2125 -544 542 -1239 881 -2008 981
-152 19 -500 32 -637 23z m-400 -1993 c66 -42 194 -181 276 -301 93 -134 159
-264 178 -351 22 -98 30 -110 65 -107 l31 3 5 375 c3 206 9 381 13 388 5 6 23
12 41 12 26 0 35 -5 40 -22 3 -13 6 -181 6 -375 0 -193 3 -358 6 -367 6 -17
59 -23 68 -8 3 5 14 50 25 100 46 213 112 342 256 501 62 68 175 158 209 167
26 6 26 6 26 -50 0 -48 -23 -177 -74 -411 -30 -137 -19 -180 108 -411 106
-190 126 -239 162 -384 26 -103 29 -132 29 -280 0 -153 -2 -171 -27 -245 -52
-152 -297 -521 -458 -690 -128 -134 -214 -234 -287 -332 -71 -96 -87 -96 -152
-2 -25 37 -130 163 -232 280 -212 243 -255 295 -356 429 -85 111 -115 164
-178 320 -46 111 -48 119 -52 241 -3 69 0 170 6 224 18 149 90 343 190 508 64
106 87 161 101 237 11 63 3 127 -60 457 -11 56 -20 104 -20 107 0 12 26 5 55
-13z m3189 -1370 c16 -29 20 -58 24 -190 5 -174 -6 -280 -43 -425 -51 -194
-111 -331 -225 -512 -173 -275 -364 -492 -599 -680 -232 -186 -397 -279 -726
-407 -108 -43 -188 -81 -220 -105 -70 -53 -112 -118 -121 -190 -8 -67 10 -256
31 -326 29 -95 57 -87 -297 -84 l-312 3 -13 25 c-16 32 -18 679 -2 831 21 204
61 333 150 480 129 213 305 389 679 680 207 162 245 183 274 153 20 -19 14
-89 -14 -169 -23 -68 -114 -215 -217 -353 -46 -62 -89 -127 -94 -145 -11 -41
-2 -95 20 -106 34 -19 126 -23 162 -8 19 8 99 70 179 137 204 172 244 202 340
250 216 108 258 143 302 255 45 116 49 207 14 320 -28 89 -27 105 4 105 25 0
52 -41 81 -123 29 -83 51 -109 87 -105 21 2 33 14 54 58 40 81 57 159 64 297
6 103 10 125 26 140 15 13 23 15 36 7 15 -10 17 -34 20 -179 1 -104 7 -174 13
-182 18 -21 46 -15 69 14 31 39 117 322 135 442 9 58 21 111 27 118 21 26 70
11 92 -26z m-5071 17 c10 -9 23 -53 37 -126 36 -196 103 -373 162 -429 29 -27
30 -27 44 -9 10 15 14 54 14 161 0 110 3 145 15 162 14 19 19 21 41 11 30 -14
32 -22 37 -178 4 -114 7 -133 38 -210 l34 -85 40 0 c34 0 42 5 66 40 15 22 35
65 45 95 21 64 31 80 50 80 34 0 37 -44 14 -166 -27 -143 -22 -197 26 -293 31
-62 42 -74 107 -116 40 -26 110 -65 157 -87 109 -52 143 -76 320 -223 207
-173 225 -185 274 -185 56 1 117 16 127 32 5 7 9 34 9 60 0 42 -6 55 -66 135
-101 133 -191 270 -231 350 -30 60 -35 82 -37 145 l-1 73 37 -1 c42 -1 107
-45 333 -225 281 -224 394 -333 521 -502 121 -160 178 -300 204 -497 12 -92
32 -850 23 -903 -4 -29 -12 -41 -30 -48 -31 -11 -610 -12 -617 0 -3 4 4 39 15
77 22 74 38 310 25 378 -5 24 -25 56 -62 96 -62 67 -102 88 -314 170 -376 146
-628 308 -900 580 -195 194 -298 326 -439 565 -161 269 -245 596 -228 876 7
109 49 209 87 209 3 0 14 -6 23 -12z"/>
<path d="M7728 8112 c-134 -138 -238 -252 -238 -262 0 -11 29 -40 39 -40 6 0
126 120 232 231 l26 28 99 -29 c102 -30 124 -28 124 10 0 18 -27 31 -122 60
-34 10 -36 13 -31 45 4 26 1 35 -14 44 -17 9 -32 -2 -115 -87z"/>
<path d="M1552 8029 c-56 -28 -105 -87 -125 -150 -21 -64 -21 -94 0 -158 50
-157 240 -239 378 -163 111 61 162 192 120 311 -28 82 -73 114 -105 76 -11
-13 -8 -25 14 -68 31 -63 33 -116 6 -171 -29 -58 -72 -88 -131 -94 -30 -3 -49
-1 -49 6 0 6 20 88 45 184 49 188 54 232 29 242 -37 14 -140 6 -182 -15z m68
-220 c-22 -84 -43 -156 -46 -159 -3 -3 -19 9 -34 27 -66 73 -60 183 13 251 28
27 100 55 105 42 2 -5 -15 -78 -38 -161z"/>
<path d="M7990 7920 c-87 -19 -148 -61 -188 -129 -23 -39 -27 -58 -27 -121 0
-86 18 -132 73 -188 51 -50 114 -75 192 -75 146 0 254 99 267 245 5 51 2 66
-26 123 -23 47 -44 73 -74 93 -73 49 -149 67 -217 52z m92 -80 c79 -22 131
-91 131 -175 1 -78 -40 -141 -112 -171 -100 -42 -220 28 -238 140 -13 83 41
172 123 201 48 17 50 17 96 5z"/>
<path d="M8475 7559 c-88 -60 -217 -147 -287 -194 -70 -47 -130 -94 -133 -105
-8 -25 10 -50 35 -50 26 0 588 378 603 405 12 22 -10 55 -36 54 -12 0 -94 -49
-182 -110z"/>
<path d="M1185 7593 c-83 -106 -117 -162 -122 -200 -7 -54 34 -98 100 -108 71
-11 107 0 197 60 86 57 124 67 146 38 24 -32 15 -58 -51 -141 -80 -100 -94
-131 -69 -149 26 -19 29 -18 79 34 43 46 58 72 33 57 -8 -4 -10 -3 -5 2 5 5
14 9 20 9 15 0 77 89 92 132 16 47 3 100 -36 141 -50 54 -105 43 -253 -51 -93
-59 -118 -67 -142 -43 -24 25 -16 56 35 125 80 110 85 119 71 136 -23 28 -49
16 -95 -42z"/>
<path d="M8479 7312 c-152 -97 -284 -183 -293 -191 -32 -27 -15 -71 28 -71 13
0 539 331 585 367 19 15 23 25 17 46 -12 50 -46 35 -337 -151z"/>
<path d="M889 7193 c-38 -20 -59 -38 -71 -63 -20 -39 -23 -116 -8 -170 16 -59
113 -147 239 -218 113 -64 142 -70 156 -35 10 29 -27 65 -126 121 -207 120
-231 153 -181 252 23 46 33 56 63 64 27 7 43 5 65 -7 16 -9 61 -32 101 -51 39
-19 99 -50 133 -70 74 -44 107 -47 116 -10 10 37 -10 53 -179 139 -174 89
-214 95 -308 48z"/>
<path d="M8500 7145 c-58 -19 -113 -64 -148 -123 -23 -40 -27 -58 -27 -122 1
-88 21 -136 83 -192 57 -52 117 -72 200 -66 111 8 196 68 232 164 24 64 25
104 6 167 -41 137 -204 218 -346 172z m183 -94 c52 -32 92 -116 83 -175 -8
-53 -53 -119 -97 -142 -39 -20 -118 -20 -156 0 -99 51 -130 174 -68 268 51 76
158 99 238 49z"/>
<path d="M665 6706 c-89 -42 -134 -117 -135 -221 0 -230 287 -352 453 -192
119 117 96 318 -48 403 -55 32 -89 29 -93 -8 -3 -22 4 -32 35 -51 94 -60 126
-143 89 -231 -15 -36 -86 -100 -97 -88 -4 4 -28 82 -54 175 -52 191 -62 219
-78 229 -16 11 -16 11 -72 -16z m44 -136 c6 -25 25 -94 41 -155 16 -60 28
-111 26 -112 -11 -12 -103 37 -128 68 -30 37 -46 114 -34 163 8 32 66 100 76
89 4 -4 12 -28 19 -53z"/>
<path d="M8847 6345 c-61 -23 -114 -71 -143 -130 -23 -48 -26 -64 -22 -129 3
-68 7 -80 43 -132 53 -78 114 -115 198 -121 56 -5 90 2 288 57 123 34 232 66
242 72 12 6 17 18 15 35 -5 45 -26 49 -129 19 -141 -40 -137 -41 -131 53 4 67
1 87 -17 123 -29 60 -84 116 -139 140 -59 26 -155 32 -205 13z m205 -101 c113
-79 97 -254 -29 -315 -154 -74 -315 82 -244 236 50 108 178 145 273 79z"/>
<path d="M422 6261 c-8 -4 -12 -19 -10 -32 3 -21 30 -35 238 -117 241 -96 261
-100 268 -55 2 14 -7 24 -35 36 -45 19 -442 177 -446 177 -1 0 -8 -4 -15 -9z"/>
<path d="M371 6031 c-31 -31 -46 -121 -32 -185 43 -192 280 -261 434 -126 77
69 117 210 60 218 -24 4 -37 -14 -47 -68 -10 -51 -51 -107 -96 -130 -46 -23
-125 -26 -173 -6 -62 25 -118 113 -117 181 1 11 7 37 15 59 7 21 11 44 8 51
-8 23 -33 25 -52 6z"/>
<path d="M9035 5729 c-86 -21 -160 -89 -191 -176 -44 -124 33 -273 163 -317
64 -22 126 -21 146 2 35 38 19 53 -66 63 -75 9 -132 46 -158 102 -24 54 -24
91 2 146 l20 45 154 -154 c150 -149 155 -152 177 -138 35 23 77 98 84 149 9
63 -17 144 -60 195 -60 70 -178 106 -271 83z m127 -81 c82 -24 140 -127 118
-208 l-11 -41 -30 26 c-17 14 -35 23 -39 20 -5 -3 -12 0 -16 6 -4 8 -3 9 4 5
33 -20 3 18 -73 93 -47 46 -85 87 -85 91 0 19 80 24 132 8z"/>
<path d="M545 5548 c-20 -19 -58 -79 -88 -138 -60 -118 -92 -149 -124 -117
-15 15 -18 37 -18 145 0 109 -2 127 -16 130 -42 8 -59 -56 -60 -233 -1 -87 0
-90 27 -112 46 -36 78 -38 140 -8 61 30 91 67 124 156 22 60 60 109 83 109 8
0 25 -8 37 -18 l23 -19 -13 -126 c-15 -137 -9 -161 34 -155 28 4 44 69 52 208
5 95 3 108 -15 138 -48 76 -129 93 -186 40z"/>
<path d="M180 5115 c-6 -8 -9 -23 -6 -33 6 -17 23 -20 144 -30 75 -7 192 -15
258 -18 114 -7 122 -6 132 13 22 40 5 45 -249 64 -134 10 -249 19 -255 19 -6
0 -17 -7 -24 -15z"/>
<path d="M0 4880 l0 -40 338 0 c329 0 339 1 358 21 14 15 16 24 7 37 -9 15
-44 17 -357 20 l-346 2 0 -40z"/>
<path d="M8902 4820 c-10 -16 -10 -24 0 -40 12 -19 24 -20 355 -20 l343 0 0
40 0 40 -343 0 c-331 0 -343 -1 -355 -20z"/>
<path d="M380 4724 c-89 -24 -158 -92 -181 -178 -15 -55 -6 -143 19 -192 63
-124 226 -178 349 -116 47 24 109 91 129 138 21 51 18 147 -7 205 l-22 50 22
23 c44 46 16 66 -102 71 -45 1 -98 6 -117 9 -19 3 -60 -1 -90 -10z m156 -73
c63 -29 114 -109 114 -181 0 -14 -12 -50 -26 -78 -34 -68 -89 -102 -167 -103
-84 -1 -141 36 -178 116 -73 157 96 319 257 246z"/>
<path d="M9019 4622 c-117 -61 -171 -203 -123 -322 16 -40 16 -40 -10 -61 -54
-42 -32 -62 94 -84 200 -35 249 -29 330 35 117 93 120 300 7 396 -84 71 -203
86 -298 36z m196 -61 c144 -65 152 -263 14 -340 -58 -33 -151 -27 -204 13 -72
55 -98 136 -70 216 19 55 48 87 100 111 51 24 109 24 160 0z"/>
<path d="M301 4081 c-200 -31 -246 -41 -257 -56 -17 -23 -17 -27 0 -50 13 -19
18 -18 222 10 115 17 244 30 287 30 78 0 79 0 112 -37 32 -35 55 -90 55 -135
0 -21 24 -53 40 -53 44 0 48 25 25 146 -19 98 -36 133 -78 162 -46 31 -108 28
-406 -17z"/>
<path d="M8791 3782 c-7 -13 -6 -25 3 -38 8 -10 124 -75 260 -144 135 -69 246
-129 246 -134 0 -4 -129 -6 -287 -3 -157 3 -296 2 -308 -3 -29 -11 -53 -87
-33 -105 7 -7 126 -88 263 -180 l250 -167 -60 7 c-33 4 -160 22 -282 41 -272
42 -291 42 -299 10 -7 -31 -1 -42 28 -49 35 -9 694 -107 718 -107 17 0 20 6
20 48 0 27 -6 56 -12 65 -7 9 -123 91 -258 182 -135 91 -246 169 -248 173 -1
4 146 6 326 4 366 -3 360 -4 348 62 -4 19 -12 38 -19 44 -32 25 -607 312 -625
312 -12 0 -26 -8 -31 -18z"/>
<path d="M795 3439 c-27 -10 -90 -34 -139 -52 -63 -23 -99 -43 -126 -69 -96
-96 -64 -264 62 -329 74 -38 112 -36 269 16 174 57 179 59 179 90 0 48 -27 47
-180 -6 -157 -54 -199 -59 -248 -29 -41 25 -76 97 -66 137 17 68 28 76 217
144 144 52 149 55 145 87 -2 22 -8 27 -33 29 -16 1 -52 -7 -80 -18z"/>
<path d="M8565 2921 c15 -6 11 -9 -22 -14 -52 -9 -131 -63 -154 -107 -28 -52
-26 -144 6 -206 30 -58 30 -61 8 -43 -10 9 -14 9 -10 2 9 -15 201 -130 280
-169 66 -32 92 -26 92 21 0 25 -12 34 -128 100 -70 39 -138 82 -152 95 -81 76
-28 230 80 230 14 0 74 -26 133 -58 160 -88 197 -103 217 -88 36 26 14 57 -75
109 -99 58 -264 137 -282 136 -7 0 -4 -4 7 -8z"/>
<path d="M907 2910 c-78 -20 -140 -69 -180 -145 -30 -56 -30 -164 0 -221 85
-160 310 -197 435 -71 55 54 73 101 73 187 0 63 -4 82 -27 121 -59 100 -190
156 -301 129z m105 -80 c71 -20 137 -102 138 -170 1 -152 -177 -244 -286 -147
-86 75 -94 183 -19 266 49 53 100 69 167 51z"/>
<path d="M8172 2763 c-64 -110 -72 -130 -72 -175 0 -61 29 -101 107 -151 196
-125 422 -257 440 -257 25 0 43 19 43 46 0 18 -26 38 -127 99 -272 165 -311
192 -333 228 -29 48 -26 103 12 176 34 67 32 93 -10 99 -16 3 -29 -11 -60 -65z"/>
<path d="M490 2590 c0 -46 202 -152 232 -122 16 16 -51 78 -117 108 -52 25
-115 32 -115 14z"/>
<path d="M1130 2361 c-188 -118 -205 -132 -205 -157 0 -18 6 -30 16 -32 9 -1
112 57 230 130 185 116 214 137 214 158 0 51 -40 36 -255 -99z"/>
<path d="M1410 2360 c-12 -22 -5 -44 11 -34 5 3 8 2 7 -3 -1 -4 11 -28 27 -52
26 -38 30 -54 30 -111 0 -56 -4 -73 -28 -108 -35 -53 -93 -84 -161 -84 -64 -1
-99 17 -153 76 -45 50 -54 54 -73 31 -16 -20 -5 -50 39 -98 97 -107 253 -115
363 -18 105 92 109 288 9 389 -38 37 -56 40 -71 12z"/>
<path d="M8175 2303 c-129 -27 -215 -129 -215 -254 0 -99 74 -215 124 -196 21
8 21 61 0 77 -23 20 -44 77 -44 122 0 50 31 110 71 139 36 26 109 43 109 25 0
-6 -12 -100 -26 -209 -31 -236 -32 -232 63 -224 220 17 307 278 148 441 -57
58 -161 93 -230 79z m178 -140 c28 -30 57 -91 57 -120 0 -37 -22 -93 -47 -124
-26 -30 -90 -66 -100 -55 -10 10 40 326 52 326 6 0 23 -12 38 -27z"/>
<path d="M1693 2030 c-12 -5 -43 -30 -70 -55 -26 -26 -62 -55 -80 -66 -47 -29
-91 -94 -104 -157 -32 -142 55 -277 202 -312 114 -28 241 37 293 150 59 131
-12 300 -146 348 -41 14 -48 21 -48 44 0 30 -9 58 -19 57 -3 0 -16 -4 -28 -9z
m86 -160 c143 -73 142 -269 -2 -339 -152 -74 -319 71 -266 230 14 42 64 97
104 115 44 20 120 17 164 -6z"/>
<path d="M7780 1932 c-15 -5 -30 -21 -30 -33 0 -3 60 -61 134 -127 l134 -122
-26 -101 c-24 -97 -24 -103 -8 -115 29 -21 41 -8 67 74 l25 77 36 -3 c49 -4
58 21 21 61 -36 37 -310 279 -326 288 -7 3 -19 4 -27 1z"/>
<path d="M7533 1864 c-12 -32 45 -171 86 -208 11 -10 27 -16 36 -13 44 17 -22
199 -83 226 -30 14 -32 14 -39 -5z"/>
<path d="M2087 1539 c-53 -13 -108 -43 -138 -76 -66 -72 -160 -204 -153 -214
4 -7 3 -9 -4 -5 -14 9 -132 -151 -132 -179 0 -23 17 -35 49 -35 11 0 45 36 85
90 37 50 71 90 77 90 5 0 14 -11 19 -26 19 -48 73 -104 129 -132 46 -22 69
-27 131 -27 63 0 83 5 120 27 98 57 143 132 143 233 -1 72 -19 119 -67 173
-60 66 -175 102 -259 81z m126 -83 c62 -25 117 -111 117 -182 0 -36 -49 -118
-85 -143 -52 -35 -129 -40 -183 -12 -131 67 -130 266 1 330 49 24 105 26 150
7z"/>
<path d="M7187 1423 c-14 -13 -6 -40 18 -63 33 -31 145 -204 145 -224 0 -18
-248 -196 -264 -190 -6 2 -51 63 -99 134 -90 133 -108 148 -141 114 -9 -8 -16
-23 -16 -32 0 -9 41 -73 90 -142 50 -69 119 -165 154 -215 35 -49 75 -100 88
-112 34 -32 91 -53 140 -53 84 1 199 75 237 153 25 53 28 135 5 180 -9 18 -84
128 -168 244 -139 195 -168 228 -189 206z m262 -412 c63 -98 47 -167 -56 -235
-88 -58 -148 -47 -219 39 -25 31 -34 49 -27 56 16 16 257 188 264 188 4 1 21
-21 38 -48z"/>
<path d="M2572 1303 c-25 -21 -158 -251 -178 -307 -17 -46 -17 -69 -3 -119 33
-121 188 -183 307 -123 57 29 60 33 150 172 89 141 106 178 89 205 -6 10 -22
19 -34 19 -18 0 -36 -24 -94 -122 -40 -68 -83 -135 -97 -150 -67 -73 -189 -54
-228 36 -7 17 -13 24 -14 16 0 -29 38 -77 75 -94 26 -13 52 -17 84 -13 l46 4
-35 -14 c-68 -29 -150 8 -171 75 -14 48 5 99 90 242 63 105 79 153 59 177 -14
17 -22 16 -46 -4z"/>
<path d="M3034 1001 c-22 -10 -54 -35 -71 -56 -33 -39 -143 -307 -143 -347 0
-28 17 -48 42 -48 22 0 25 6 88 170 63 164 85 191 162 197 64 5 110 -19 135
-72 16 -34 16 -36 -26 -157 -70 -200 -74 -217 -61 -233 15 -19 44 -19 58 -2 6
7 34 76 63 153 60 161 71 241 44 295 -22 44 -53 77 -87 95 -47 24 -44 15 5
-15 28 -19 54 -46 67 -70 25 -50 20 -54 -8 -7 -11 19 -42 47 -69 63 -64 37
-149 39 -207 5 -21 -13 -41 -21 -43 -18 -9 8 48 39 95 52 31 8 38 13 22 13
-14 0 -43 -8 -66 -18z"/>
<path d="M5930 810 c-68 -12 -129 -40 -135 -61 -17 -52 28 -86 83 -63 209 86
422 -40 439 -260 12 -152 -100 -290 -257 -318 -69 -12 -92 -37 -71 -76 15 -29
42 -35 107 -23 135 25 246 109 302 228 24 52 27 70 27 163 0 98 -2 109 -32
170 -85 173 -279 274 -463 240z"/>
<path d="M3722 778 c-5 -7 -24 -76 -42 -153 -17 -77 -34 -143 -38 -147 -4 -4
-67 7 -140 23 -140 31 -162 30 -162 -12 0 -28 35 -45 140 -68 130 -30 130 -30
130 -51 0 -10 -18 -57 -40 -105 l-40 -88 -129 8 c-125 6 -130 6 -141 -14 -28
-54 21 -71 200 -71 92 0 97 1 122 28 43 45 158 369 194 544 15 72 16 89 5 102
-16 19 -45 21 -59 4z"/>
<path d="M4693 465 c-78 -33 -97 -146 -35 -208 25 -25 41 -31 86 -35 54 -4 57
-3 96 36 34 34 40 46 40 83 0 56 -30 106 -75 125 -43 17 -71 17 -112 -1z"/>
</g>
</svg>
